<mxfile host="65bd71144e">
    <diagram id="MmSNSuZkVtJNYr_aaVZQ" name="Page-1">
        <mxGraphModel dx="1648" dy="436" grid="1" gridSize="10" guides="1" tooltips="1" connect="1" arrows="1" fold="1" page="1" pageScale="1" pageWidth="850" pageHeight="1100" math="0" shadow="0">
            <root>
                <mxCell id="0"/>
                <mxCell id="1" parent="0"/>
                <mxCell id="15" style="edgeStyle=none;html=1;entryX=0.188;entryY=1.05;entryDx=0;entryDy=0;entryPerimeter=0;fontSize=14;fontColor=#747845;" edge="1" parent="1" source="4" target="6">
                    <mxGeometry relative="1" as="geometry"/>
                </mxCell>
                <mxCell id="17" style="edgeStyle=none;html=1;entryX=0;entryY=0.5;entryDx=0;entryDy=0;fontSize=14;fontColor=#747845;" edge="1" parent="1" source="4" target="8">
                    <mxGeometry relative="1" as="geometry"/>
                </mxCell>
                <mxCell id="18" style="edgeStyle=none;html=1;fontSize=14;fontColor=#747845;" edge="1" parent="1" source="4" target="10">
                    <mxGeometry relative="1" as="geometry"/>
                </mxCell>
                <mxCell id="19" style="edgeStyle=none;html=1;entryX=1;entryY=0.5;entryDx=0;entryDy=0;fontSize=14;fontColor=#747845;" edge="1" parent="1" source="4" target="7">
                    <mxGeometry relative="1" as="geometry"/>
                </mxCell>
                <mxCell id="20" style="edgeStyle=none;html=1;entryX=0.75;entryY=0;entryDx=0;entryDy=0;fontSize=14;fontColor=#747845;" edge="1" parent="1" source="4" target="9">
                    <mxGeometry relative="1" as="geometry"/>
                </mxCell>
                <mxCell id="21" style="edgeStyle=none;html=1;fontSize=14;fontColor=#747845;" edge="1" parent="1" source="4" target="11">
                    <mxGeometry relative="1" as="geometry"/>
                </mxCell>
                <mxCell id="4" value="&lt;font style=&quot;font-size: 14px;&quot; color=&quot;#090606&quot;&gt;Langchain&lt;/font&gt;" style="rounded=1;whiteSpace=wrap;html=1;fillColor=#d0cee2;strokeColor=#56517e;shadow=0;fillStyle=auto;dashed=1;" vertex="1" parent="1">
                    <mxGeometry x="320" y="180" width="160" height="60" as="geometry"/>
                </mxCell>
                <mxCell id="5" value="&lt;font style=&quot;font-size: 14px;&quot; color=&quot;#090606&quot;&gt;Langsmith&lt;/font&gt;" style="rounded=1;whiteSpace=wrap;html=1;fillColor=#d0cee2;strokeColor=#56517e;shadow=0;fillStyle=auto;dashed=1;" vertex="1" parent="1">
                    <mxGeometry x="150" y="40" width="160" height="60" as="geometry"/>
                </mxCell>
                <mxCell id="6" value="&lt;font style=&quot;font-size: 14px;&quot; color=&quot;#090606&quot;&gt;LangServe&lt;br&gt;FAST API&amp;nbsp;&lt;br&gt;&lt;/font&gt;" style="rounded=1;whiteSpace=wrap;html=1;fillColor=#d0cee2;strokeColor=#56517e;shadow=0;fillStyle=auto;dashed=1;" vertex="1" parent="1">
                    <mxGeometry x="500" y="40" width="160" height="60" as="geometry"/>
                </mxCell>
                <mxCell id="7" value="&lt;font style=&quot;font-size: 14px;&quot; color=&quot;#090606&quot;&gt;Chain&lt;/font&gt;" style="rounded=1;whiteSpace=wrap;html=1;fillColor=#d0cee2;strokeColor=#56517e;shadow=0;fillStyle=auto;dashed=1;" vertex="1" parent="1">
                    <mxGeometry x="20" y="180" width="160" height="60" as="geometry"/>
                </mxCell>
                <mxCell id="8" value="&lt;font style=&quot;font-size: 14px;&quot; color=&quot;#090606&quot;&gt;Langchain&lt;/font&gt;" style="rounded=1;whiteSpace=wrap;html=1;fillColor=#d0cee2;strokeColor=#56517e;shadow=0;fillStyle=auto;dashed=1;" vertex="1" parent="1">
                    <mxGeometry x="630" y="180" width="160" height="60" as="geometry"/>
                </mxCell>
                <mxCell id="9" value="&lt;font style=&quot;font-size: 14px;&quot; color=&quot;#090606&quot;&gt;Agent, Retrival&lt;/font&gt;" style="rounded=1;whiteSpace=wrap;html=1;fillColor=#d0cee2;strokeColor=#56517e;shadow=0;fillStyle=auto;dashed=1;" vertex="1" parent="1">
                    <mxGeometry x="120" y="310" width="160" height="60" as="geometry"/>
                </mxCell>
                <mxCell id="10" value="&lt;font style=&quot;font-size: 14px;&quot; color=&quot;#090606&quot;&gt;LCEL&lt;/font&gt;" style="rounded=1;whiteSpace=wrap;html=1;fillColor=#d0cee2;strokeColor=#56517e;shadow=0;fillStyle=auto;dashed=1;" vertex="1" parent="1">
                    <mxGeometry x="370" y="310" width="160" height="60" as="geometry"/>
                </mxCell>
                <mxCell id="11" value="&lt;font&gt;Model I/O&lt;br&gt;Retrival&lt;br&gt;Agent tool&lt;br&gt;&lt;/font&gt;" style="text;html=1;strokeColor=none;fillColor=none;align=center;verticalAlign=middle;whiteSpace=wrap;rounded=0;shadow=0;dashed=1;fillStyle=auto;fontSize=14;fontColor=#747845;" vertex="1" parent="1">
                    <mxGeometry x="610" y="300" width="160" height="80" as="geometry"/>
                </mxCell>
                <mxCell id="12" value="" style="endArrow=none;html=1;fontSize=14;fontColor=#747845;exitX=0.25;exitY=0;exitDx=0;exitDy=0;" edge="1" parent="1" source="4">
                    <mxGeometry width="50" height="50" relative="1" as="geometry">
                        <mxPoint x="190" y="150" as="sourcePoint"/>
                        <mxPoint x="240" y="100" as="targetPoint"/>
                    </mxGeometry>
                </mxCell>
                <mxCell id="24" style="edgeStyle=none;html=1;fontSize=14;fontColor=#747845;" edge="1" parent="1" source="22">
                    <mxGeometry relative="1" as="geometry">
                        <mxPoint x="110" y="50" as="targetPoint"/>
                    </mxGeometry>
                </mxCell>
                <mxCell id="22" value="LLMOPS" style="text;html=1;strokeColor=none;fillColor=none;align=center;verticalAlign=middle;whiteSpace=wrap;rounded=0;shadow=0;dashed=1;fillStyle=auto;fontSize=14;fontColor=#747845;" vertex="1" parent="1">
                    <mxGeometry x="-20" y="30" width="60" height="30" as="geometry"/>
                </mxCell>
                <mxCell id="23" value="Analytics" style="text;html=1;strokeColor=none;fillColor=none;align=center;verticalAlign=middle;whiteSpace=wrap;rounded=0;shadow=0;dashed=1;fillStyle=auto;fontSize=14;fontColor=#747845;" vertex="1" parent="1">
                    <mxGeometry x="40" y="80" width="60" height="30" as="geometry"/>
                </mxCell>
            </root>
        </mxGraphModel>
    </diagram>
</mxfile>